<svg xmlns="http://www.w3.org/2000/svg" viewBox="0 0 14 14" id="article"><g transform="translate(3.616699, 1.608398)"><path d="M0.0136063,12.3984375H6.948308c1.3516788,0,2.0242538-0.6856346,2.0242538-2.0438433V4.4254899c0-0.842351-0.0979481-1.2080226-0.6203365-1.7434704L4.7542777-0.9812267C4.2580094-1.490555,3.8466287-1.6015625,3.1152854-1.6015625H0.0136063c-1.3451493,0-2.0242538,0.6921641-2.0242538,2.0503731v9.9057837C-2.0106475,11.7193327-1.3380729,12.3984375,0.0136063,12.3984375zM0.0593152,11.3471317c-0.6725746,0-1.0186567-0.3591423-1.0186567-1.0121269V0.4684002c0-0.6464552,0.346082-1.0186567,1.0251865-1.0186567h2.9057837v3.7938433c0,0.8227613,0.4113805,1.2276118,1.227612,1.2276118h3.7220149v5.8638062c0,0.6529846-0.3460822,1.0121269-1.0251865,1.0121269H0.0593152zM4.3167777,3.4851911c-0.2611938,0-0.3591416-0.1044776-0.3591416-0.3656716v-3.4673507l3.761194,3.8330224H4.3167777zM5.8839421,6.2734375H0.9277854c-0.2350746,0-0.4113806,0.1763058-0.4113806,0.3983207c0,0.2285452,0.176306,0.404851,0.4113806,0.404851h4.9561567c0.2285447,0,0.3983207-0.1763058,0.3983207-0.404851C6.2822628,6.4497433,6.1124868,6.2734375,5.8839421,6.2734375zM5.8839421,8.5523558H0.9277854c-0.2350746,0-0.4113806,0.1828356-0.4113806,0.4113798c0,0.2220154,0.176306,0.3917913,0.4113806,0.3917913h4.9561567c0.2285447,0,0.3983207-0.169776,0.3983207-0.3917913C6.2822628,8.7351913,6.1124868,8.5523558,5.8839421,8.5523558z"></path></g></svg>
