<svg viewBox="0 0 128 128" xmlns="http://www.w3.org/2000/svg" id="technology">
  <defs>
  <style>
    @media(prefers-color-scheme: dark) {
      :root { --color-logo-shape: #000000; --color-logo-base: #ffffff; }
    }
    body[data-color-scheme="dark"] {
      --color-logo-shape: #000000; --color-logo-base: #ffffff;
    }
  </style>
  <path id="surface" d="m 6,47 l 58,-47 58,47 -58,45 z"/>
  <path id="strut"   d="m 6,47 v 12 l 58,45 v -12 z"/>
  <path id="shape"   d="m38.2,45.3c-2.2,1.9-2.3,5-.1,6.9l16.2,14.3c2.2,1.9,5.8,2,8.1.1l26.3-22c2.2-1.9,2.3-5,.1-6.9l-16.2-14.3c-2.2-1.9-5.8-2-8.1-.1zm22.2,11.7c-.7,2.2-4,1.4-3.6-.5l1.4-8.2-9.6,1c-2.2.3-3-2.9-.5-3.1l11.9-1.2c1.1-.2,2.2.7,2,1.8zm17.1-13-7.5,6.3c-1.6,1.4-4.3-1-2.6-2.3l7.5-6.3c1.6-1.4,4.3,1,2.6,2.3z"/>
  </defs>
  <use href="#strut" fill="#9ee0ff"/>
  <use href="#strut" fill="#6bd0ff" y="12"/>
  <use href="#strut" fill="#38c0ff" y="24"/>
  <g transform="matrix(-1 0 0 1 128 0)">
    <use href="#strut" fill="#f29eff"/>
    <use href="#strut" fill="#eb6bff" y="12"/>
    <use href="#strut" fill="#e438ff" y="24"/>
  </g>
  <use href="#surface" style="fill: var(--color-logo-base, #000000);"/>
  <use href="#shape" style="fill: var(--color-logo-shape, #ffffff);"/>
</svg>
