<svg viewBox="0 0 128 128" xmlns="http://www.w3.org/2000/svg" id="technology">
  <style>
    @media (prefers-color-scheme: light) {
      :root, body[data-color-scheme="auto"], body[data-color-scheme="light"] {
        --color-documentation-intro-accent-outer: #000;
        --color-documentation-intro-accent-inner: #fff;
      }
      body[data-color-scheme="dark"] {
        --color-documentation-intro-accent-outer: #fff;
        --color-documentation-intro-accent-inner: #000;
      }
    }
    @media (prefers-color-scheme: dark) {
      :root, body[data-color-scheme="auto"], body[data-color-scheme="dark"] {
        --color-documentation-intro-accent-outer: #fff;
        --color-documentation-intro-accent-inner: #000;
      }
      body[data-color-scheme="light"] {
        --color-documentation-intro-accent-outer: #000;
        --color-documentation-intro-accent-inner: #fff;
      }
    }
  </style>
  <linearGradient id="a" x1="39.48" x2="87.48" y1="25" y2="25" gradientUnits="userSpaceOnUse" gradientTransform="rotate(-43,63.48,45)">
    <stop stop-color="#3dc4ff" offset="0"/>
    <stop stop-color="#e040fb" offset="1"/>
  </linearGradient>
  <path style="fill: #40c4ff; fill-opacity: 1.0;" d="m64.33,92.04c.8,1.91.2,5.24.4,7.7-0,1.86.1,6.16-.3,6.26.45-1.7-1.17-2.2-2.19-3.1-18.41-14.51-36.83-28.99-55.24-43.46v-12.44c19.11,15.01,38.22,30.03,57.33,45.04z"/>
  <path style="fill: #3dc4ff; fill-opacity: 1.0;" d="m64.66,116.2c-.73.7-1.59-.9-2.38-1.2-18.43-14.5-36.85-28.99-55.28-43.46v-12.44c19.11,15.01,38.22,30.03,57.33,45,.77.2.11,1.9.33,2.6v9.5z"/>
  <path style="fill: #3dc4ff; fill-opacity: 1.0;" d="m64.66,127.7c-.71.7-1.58-1-2.37-1.3-18.43-14.5-36.86-28.96-55.29-43.44v-11.76c19.11,15.01,38.22,30,57.33,45,.69-.6.17,1.7.33,2.3v9.2z"/>
  <path style="fill: #e040fb; fill-opacity: 1.0;" d="m64,92.04v12.46c19-15.04,38-30.05,57-45.06v-12.44c-19,15.01-38,30.03-57,45.04z"/>
  <path style="fill: #e040fb; fill-opacity: 1.0;" d="m121,71.54v-12.44c-19,15.01-38,30.03-57,45v12.5c19-15,38-30.05,57-45.06z"/>
  <path style="fill: #e040fb; fill-opacity: 1.0;" d="m121,83.3v-12.1c-19,15.01-38,30-57,45v11.8l57-44.7z"/>
  <path style="fill: #ffffff; fill-opacity: .25;" d="m64.66,116.2c-.73.7-1.59-.9-2.38-1.2-18.43-14.5-36.85-28.99-55.28-43.46v-12.44c19.11,15.01,38.22,30.03,57.33,45,.77.2.11,1.9.33,2.6v9.5z"/>
  <path style="fill: #ffffff; fill-opacity: 0.5;" d="m64.66,127.7c-.71.7-1.58-1-2.37-1.3-18.43-14.5-36.86-28.96-55.29-43.44v-11.76c19.11,15.01,38.22,30,57.33,45,.69-.6.17,1.7.33,2.3v9.2z"/>
  <path style="fill: #ffffff; fill-opacity: .25;" d="m121,71.54v-12.44c-19,15.01-38,30.03-57,45v12.5c19-15,38-30.05,57-45.06z"/>
  <path style="fill: #ffffff; fill-opacity: 0.5;" d="m121,83.3v-12.1c-19,15.01-38,30-57,45v11.8l57-44.7z"/>
  <path style="fill: var(--color-documentation-intro-accent-outer);" d="m7,46.84,55.66-46.84,58.34,46.84v.33l-57,44.83-57-44.83z"/>
  <path style="fill: var(--color-documentation-intro-accent-inner); stroke: url(#a);" d="m38.24,45.32c-2.24,1.88-2.27,4.99-.1,6.94l16.19,14.31c2.22,1.94,5.83,2,8.08.13l26.31-22.02c2.24-1.88,2.27-4.99.1-6.94l-16.19-14.31c-2.22-1.94-5.83-2-8.08-.13zm23.9,1.51-1.71,10.24c-.1.34-.26.65-.54.89-.4.34-.97.5-1.54.43-.48-.1-.92-.28-1.21-.62-.3-.34-.42-.76-.35-1.18l1.39-8.2-9.58.98c-.65.1-1.3-.18-1.69-.63-.4-.45-.49-1.05-.23-1.57.25-.51.81-.87,1.46-.94l11.95-1.21c.57-.1,1.15.12,1.55.47.4.36.59.85.5,1.34zm15.43-2.83-7.49,6.31c-.68.57-1.82.51-2.55-.12-.73-.64-.78-1.62-.1-2.19l7.49-6.31c.68-.57,1.82-.51,2.55.12.73.64.78,1.62.1,2.19z"/>
</svg>
