<svg viewBox="0 0 128 128" xmlns="http://www.w3.org/2000/svg" id="technology">
  <defs>
  <style>
    @media(prefers-color-scheme:dark){:root{--color-logo-shape:#000;--color-logo-base:#fff;}}
    body[data-color-scheme="dark"]{--color-logo-shape:#000;--color-logo-base:#fff;}
  </style>
  <path id="d" d="m6,47l58-47,58,47-58,45z"/>
  <path id="s" d="m6,47v12l58,45v-12z"/>
  <path id="h" d="m38.24,45.32c-2.24,1.88-2.27,4.99-.1,6.94l16.19,14.31c2.22,1.94,5.83,2,8.08.13l26.31-22.02c2.24-1.88,2.27-4.99.1-6.94l-16.19-14.31c-2.22-1.94-5.83-2-8.08-.13zm23.9,1.51-1.71,10.24c-.1.34-.26.65-.54.89-.4.34-.97.5-1.54.43-.48-.1-.92-.28-1.21-.62-.3-.34-.42-.76-.35-1.18l1.39-8.2-9.58.98c-.65.1-1.3-.18-1.69-.63-.4-.45-.49-1.05-.23-1.57.25-.51.81-.87,1.46-.94l11.95-1.21c.57-.1,1.15.12,1.55.47.4.36.59.85.5,1.34zm15.43-2.83-7.49,6.31c-.68.57-1.82.51-2.55-.12-.73-.64-.78-1.62-.1-2.19l7.49-6.31c.68-.57,1.82-.51,2.55.12.73.64.78,1.62.1,2.19z"/>
  </defs>
  <use href="#s" fill="#9ee0ff"/>
  <use href="#s" fill="#6bd0ff" y="12"/>
  <use href="#s" fill="#38c0ff" y="24"/>
  <g transform="matrix(-1 0 0 1 128 0)">
    <use href="#s" fill="#f29eff"/>
    <use href="#s" fill="#eb6bff" y="12"/>
    <use href="#s" fill="#e438ff" y="24"/>
  </g>
  <use href="#d" style="fill:var(--color-logo-base,#000)"/>
  <use href="#h" style="fill:var(--color-logo-shape,#fff)"/>
</svg>
